# xmcd
#
# Track frame offsets:
# 150
# 21930
# 39327
# 55200
#
# Disc length: 940 seconds
#
#
# Revision: 2
# Processed by: cddbd v1.5.1PL2 Copyright (c) Steve Scherf et al.
# Submitted via: FreeRIP 2.944 
#
DISCID=2a03aa04
DTITLE=ZZ Top - Rough Boy
DYEAR=1992
DGENRE=Bluesrock
TTITLE0=Rough Boy
TTITLE1=TV Dinners
TTITLE2=Jesus Just Left Chicago
TTITLE3=Beer Drinkers and Hell Raisers
EXTD=
EXTT0=
EXTT1=
EXTT2=
EXTT3=
PLAYORDER=
